<svg width="16" height="17" viewBox="0 0 16 17" fill="none" xmlns="http://www.w3.org/2000/svg">
<path d="M3.85001 8.54545C3.85001 7.74953 4.04413 7.02397 4.43239 6.36879C4.82065 5.7136 5.34237 5.19188 5.99756 4.80362C6.65274 4.41536 7.3783 4.22124 8.17422 4.22124C8.86338 4.22124 9.49915 4.36926 10.0815 4.66531C10.6688 4.96135 11.1541 5.3666 11.5375 5.88104C11.9209 6.39062 12.1587 6.96816 12.2509 7.61364H10.4892C10.3921 7.11375 10.1228 6.70608 9.68115 6.39062C9.23951 6.07031 8.7372 5.91016 8.17422 5.91016C7.6889 5.91016 7.24726 6.02906 6.8493 6.26687C6.45133 6.50468 6.13345 6.82256 5.89564 7.22053C5.65783 7.61849 5.53893 8.06013 5.53893 8.54545C5.53893 9.03078 5.65783 9.47242 5.89564 9.87038C6.13345 10.2683 6.45133 10.5862 6.8493 10.824C7.24726 11.0618 7.6889 11.1808 8.17422 11.1808C8.7372 11.1808 9.21281 11.023 9.60107 10.7076C9.99418 10.3873 10.2417 9.97715 10.3436 9.47727H12.1053C12.0131 10.1228 11.7874 10.7027 11.4283 11.2172C11.0692 11.7267 10.6081 12.1296 10.0451 12.4256C9.48702 12.7216 8.86338 12.8697 8.17422 12.8697C7.3783 12.8697 6.65274 12.6755 5.99756 12.2873C5.34237 11.899 4.82065 11.3773 4.43239 10.7221C4.04413 10.0669 3.85001 9.34138 3.85001 8.54545ZM8.10143 16.233C7.04342 16.233 6.04851 16.034 5.1167 15.636C4.18973 15.238 3.37196 14.6872 2.66339 13.9835C1.95968 13.2749 1.40641 12.4571 1.00359 11.5302C0.605629 10.6032 0.409073 9.60831 0.413927 8.54545C0.41878 7.4826 0.620188 6.48769 1.01815 5.56072C1.42097 4.63376 1.97424 3.81842 2.67795 3.1147C3.38167 2.40613 4.19701 1.85286 5.12398 1.4549C6.05094 1.05694 7.04342 0.857954 8.10143 0.857954C9.16428 0.857954 10.1592 1.05694 11.0862 1.4549C12.018 1.85286 12.8333 2.40613 13.5322 3.1147C14.2359 3.81842 14.7867 4.63376 15.1847 5.56072C15.5827 6.48769 15.7841 7.4826 15.7889 8.54545C15.7938 9.60831 15.5972 10.6032 15.1993 11.5302C14.8013 12.4571 14.2505 13.2749 13.5467 13.9835C12.843 14.6872 12.0253 15.238 11.0934 15.636C10.1616 16.034 9.16428 16.233 8.10143 16.233ZM8.10143 14.544C8.93133 14.544 9.71027 14.3887 10.4383 14.0781C11.1662 13.7675 11.8044 13.338 12.3528 12.7896C12.9013 12.2412 13.3308 11.6054 13.6414 10.8823C13.952 10.1543 14.1049 9.37778 14.1 8.55273C14.0952 7.72283 13.9374 6.94389 13.6268 6.21591C13.3162 5.48793 12.8867 4.84973 12.3383 4.30131C11.7899 3.7529 11.1541 3.32339 10.431 3.01278C9.70784 2.70218 8.93133 2.54688 8.10143 2.54688C7.27638 2.54688 6.50229 2.70218 5.77916 3.01278C5.05603 3.32339 4.42026 3.75533 3.87185 4.30859C3.32343 4.85701 2.8915 5.49521 2.57604 6.22319C2.26543 6.94632 2.1077 7.72283 2.10285 8.55273C2.09799 9.37293 2.25087 10.147 2.56148 10.875C2.87208 11.5981 3.30159 12.2339 3.85001 12.7823C4.40327 13.3307 5.04147 13.7627 5.7646 14.0781C6.49258 14.3887 7.27153 14.544 8.10143 14.544Z" fill="black"/>
</svg>
